<mxfile host="65bd71144e">
    <diagram id="TKEgoqXHID_q1MI3kZL-" name="Page-1">
        <mxGraphModel dx="1079" dy="813" grid="1" gridSize="10" guides="1" tooltips="1" connect="1" arrows="1" fold="1" page="1" pageScale="1" pageWidth="827" pageHeight="1169" math="0" shadow="0">
            <root>
                <mxCell id="0"/>
                <mxCell id="1" parent="0"/>
                <mxCell id="2" value="Header" style="shape=umlFrame;whiteSpace=wrap;html=1;width=120;height=30;boundedLbl=1;verticalAlign=middle;align=left;spacingLeft=5;" vertex="1" parent="1">
                    <mxGeometry x="40" y="20" width="740" height="170" as="geometry"/>
                </mxCell>
                <mxCell id="3" value="Main" style="shape=umlFrame;whiteSpace=wrap;html=1;width=120;height=30;boundedLbl=1;verticalAlign=middle;align=left;spacingLeft=5;" vertex="1" parent="1">
                    <mxGeometry x="40" y="210" width="740" height="2130" as="geometry"/>
                </mxCell>
                <mxCell id="4" value="footer" style="shape=umlFrame;whiteSpace=wrap;html=1;width=120;height=30;boundedLbl=1;verticalAlign=middle;align=left;spacingLeft=5;" vertex="1" parent="1">
                    <mxGeometry x="40" y="2380" width="740" height="110" as="geometry"/>
                </mxCell>
                <mxCell id="8" value="div - #logo" style="verticalAlign=top;align=left;shape=cube;size=10;direction=south;fontStyle=0;html=1;boundedLbl=1;spacingLeft=5;" vertex="1" parent="1">
                    <mxGeometry x="190" y="35" width="130" height="140" as="geometry"/>
                </mxCell>
                <mxCell id="9" value="src = img" style="verticalAlign=top;align=center;shape=cube;size=10;direction=south;html=1;boundedLbl=1;spacingLeft=5;" vertex="1" parent="8">
                    <mxGeometry width="100" height="80" relative="1" as="geometry">
                        <mxPoint x="10" y="50" as="offset"/>
                    </mxGeometry>
                </mxCell>
                <mxCell id="10" value="#nav" style="verticalAlign=top;align=left;shape=cube;size=10;direction=south;fontStyle=0;html=1;boundedLbl=1;spacingLeft=5;" vertex="1" parent="1">
                    <mxGeometry x="350" y="35" width="390" height="140" as="geometry"/>
                </mxCell>
                <mxCell id="11" value="Href" style="verticalAlign=top;align=center;shape=cube;size=10;direction=south;html=1;boundedLbl=1;spacingLeft=5;" vertex="1" parent="10">
                    <mxGeometry width="110" height="80" relative="1" as="geometry">
                        <mxPoint x="60" y="45" as="offset"/>
                    </mxGeometry>
                </mxCell>
                <mxCell id="12" value="Href" style="verticalAlign=top;align=center;shape=cube;size=10;direction=south;html=1;boundedLbl=1;spacingLeft=5;" vertex="1" parent="10">
                    <mxGeometry x="210" y="45" width="110" height="80" as="geometry"/>
                </mxCell>
                <mxCell id="13" value="class = nr1" style="verticalAlign=top;align=left;shape=cube;size=10;direction=south;fontStyle=0;html=1;boundedLbl=1;spacingLeft=5;" vertex="1" parent="1">
                    <mxGeometry x="52.5" y="250" width="690" height="380" as="geometry"/>
                </mxCell>
                <mxCell id="15" value="#backGround&lt;span style=&quot;color: rgba(0, 0, 0, 0); font-family: monospace; font-size: 0px; text-align: start;&quot;&gt;%3CmxGraphModel%3E%3Croot%3E%3CmxCell%20id%3D%220%22%2F%3E%3CmxCell%20id%3D%221%22%20parent%3D%220%22%2F%3E%3CmxCell%20id%3D%222%22%20value%3D%22%23nav%22%20style%3D%22verticalAlign%3Dtop%3Balign%3Dleft%3Bshape%3Dcube%3Bsize%3D10%3Bdirection%3Dsouth%3BfontStyle%3D0%3Bhtml%3D1%3BboundedLbl%3D1%3BspacingLeft%3D5%3B%22%20vertex%3D%221%22%20parent%3D%221%22%3E%3CmxGeometry%20x%3D%22350%22%20y%3D%2235%22%20width%3D%22390%22%20height%3D%22140%22%20as%3D%22geometry%22%2F%3E%3C%2FmxCell%3E%3CmxCell%20id%3D%223%22%20value%3D%22Href%22%20style%3D%22verticalAlign%3Dtop%3Balign%3Dcenter%3Bshape%3Dcube%3Bsize%3D10%3Bdirection%3Dsouth%3Bhtml%3D1%3BboundedLbl%3D1%3BspacingLeft%3D5%3B%22%20vertex%3D%221%22%20parent%3D%222%22%3E%3CmxGeometry%20width%3D%22110%22%20height%3D%2280%22%20relative%3D%221%22%20as%3D%22geometry%22%3E%3CmxPoint%20x%3D%2260%22%20y%3D%2245%22%20as%3D%22offset%22%2F%3E%3C%2FmxGeometry%3E%3C%2FmxCell%3E%3CmxCell%20id%3D%224%22%20value%3D%22Href%22%20style%3D%22verticalAlign%3Dtop%3Balign%3Dcenter%3Bshape%3Dcube%3Bsize%3D10%3Bdirection%3Dsouth%3Bhtml%3D1%3BboundedLbl%3D1%3BspacingLeft%3D5%3B%22%20vertex%3D%221%22%20parent%3D%222%22%3E%3CmxGeometry%20x%3D%22210%22%20y%3D%2245%22%20width%3D%22110%22%20height%3D%2280%22%20as%3D%22geometry%22%2F%3E%3C%2FmxCell%3E%3C%2Froot%3E%3C%2FmxGraphModel%3E&lt;/span&gt;" style="verticalAlign=top;align=center;shape=cube;size=10;direction=south;html=1;boundedLbl=1;spacingLeft=5;" vertex="1" parent="13">
                    <mxGeometry x="45" y="50" width="615" height="77.86" as="geometry"/>
                </mxCell>
                <mxCell id="16" value="#middleGround&lt;span style=&quot;color: rgba(0, 0, 0, 0); font-family: monospace; font-size: 0px; text-align: start;&quot;&gt;%3CmxGraphModel%3E%3Croot%3E%3CmxCell%20id%3D%220%22%2F%3E%3CmxCell%20id%3D%221%22%20parent%3D%220%22%2F%3E%3CmxCell%20id%3D%222%22%20value%3D%22%23nav%22%20style%3D%22verticalAlign%3Dtop%3Balign%3Dleft%3Bshape%3Dcube%3Bsize%3D10%3Bdirection%3Dsouth%3BfontStyle%3D0%3Bhtml%3D1%3BboundedLbl%3D1%3BspacingLeft%3D5%3B%22%20vertex%3D%221%22%20parent%3D%221%22%3E%3CmxGeometry%20x%3D%22350%22%20y%3D%2235%22%20width%3D%22390%22%20height%3D%22140%22%20as%3D%22geometry%22%2F%3E%3C%2FmxCell%3E%3CmxCell%20id%3D%223%22%20value%3D%22Href%22%20style%3D%22verticalAlign%3Dtop%3Balign%3Dcenter%3Bshape%3Dcube%3Bsize%3D10%3Bdirection%3Dsouth%3Bhtml%3D1%3BboundedLbl%3D1%3BspacingLeft%3D5%3B%22%20vertex%3D%221%22%20parent%3D%222%22%3E%3CmxGeometry%20width%3D%22110%22%20height%3D%2280%22%20relative%3D%221%22%20as%3D%22geometry%22%3E%3CmxPoint%20x%3D%2260%22%20y%3D%2245%22%20as%3D%22offset%22%2F%3E%3C%2FmxGeometry%3E%3C%2FmxCell%3E%3CmxCell%20id%3D%224%22%20value%3D%22Href%22%20style%3D%22verticalAlign%3Dtop%3Balign%3Dcenter%3Bshape%3Dcube%3Bsize%3D10%3Bdirection%3Dsouth%3Bhtml%3D1%3BboundedLbl%3D1%3BspacingLeft%3D5%3B%22%20vertex%3D%221%22%20parent%3D%222%22%3E%3CmxGeometry%20x%3D%22210%22%20y%3D%2245%22%20width%3D%22110%22%20height%3D%2280%22%20as%3D%22geometry%22%2F%3E%3C%2FmxCell%3E%3C%2Froot%3E%3C%2FmxGraphModel%3E&lt;/span&gt;" style="verticalAlign=top;align=center;shape=cube;size=10;direction=south;html=1;boundedLbl=1;spacingLeft=5;" vertex="1" parent="13">
                    <mxGeometry x="45" y="160" width="615" height="77.86" as="geometry"/>
                </mxCell>
                <mxCell id="17" value="#foreGround&lt;span style=&quot;color: rgba(0, 0, 0, 0); font-family: monospace; font-size: 0px; text-align: start;&quot;&gt;%3CmxGraphModel%3E%3Croot%3E%3CmxCell%20id%3D%220%22%2F%3E%3CmxCell%20id%3D%221%22%20parent%3D%220%22%2F%3E%3CmxCell%20id%3D%222%22%20value%3D%22%23nav%22%20style%3D%22verticalAlign%3Dtop%3Balign%3Dleft%3Bshape%3Dcube%3Bsize%3D10%3Bdirection%3Dsouth%3BfontStyle%3D0%3Bhtml%3D1%3BboundedLbl%3D1%3BspacingLeft%3D5%3B%22%20vertex%3D%221%22%20parent%3D%221%22%3E%3CmxGeometry%20x%3D%22350%22%20y%3D%2235%22%20width%3D%22390%22%20height%3D%22140%22%20as%3D%22geometry%22%2F%3E%3C%2FmxCell%3E%3CmxCell%20id%3D%223%22%20value%3D%22Href%22%20style%3D%22verticalAlign%3Dtop%3Balign%3Dcenter%3Bshape%3Dcube%3Bsize%3D10%3Bdirection%3Dsouth%3Bhtml%3D1%3BboundedLbl%3D1%3BspacingLeft%3D5%3B%22%20vertex%3D%221%22%20parent%3D%222%22%3E%3CmxGeometry%20width%3D%22110%22%20height%3D%2280%22%20relative%3D%221%22%20as%3D%22geometry%22%3E%3CmxPoint%20x%3D%2260%22%20y%3D%2245%22%20as%3D%22offset%22%2F%3E%3C%2FmxGeometry%3E%3C%2FmxCell%3E%3CmxCell%20id%3D%224%22%20value%3D%22Href%22%20style%3D%22verticalAlign%3Dtop%3Balign%3Dcenter%3Bshape%3Dcube%3Bsize%3D10%3Bdirection%3Dsouth%3Bhtml%3D1%3BboundedLbl%3D1%3BspacingLeft%3D5%3B%22%20vertex%3D%221%22%20parent%3D%222%22%3E%3CmxGeometry%20x%3D%22210%22%20y%3D%2245%22%20width%3D%22110%22%20height%3D%2280%22%20as%3D%22geometry%22%2F%3E%3C%2FmxCell%3E%3C%2Froot%3E%3C%2FmxGraphModel%3E&lt;/span&gt;" style="verticalAlign=top;align=center;shape=cube;size=10;direction=south;html=1;boundedLbl=1;spacingLeft=5;" vertex="1" parent="13">
                    <mxGeometry x="45" y="270" width="615" height="77.86" as="geometry"/>
                </mxCell>
                <mxCell id="18" value="svg" style="shape=umlActor;verticalLabelPosition=bottom;verticalAlign=top;html=1;" vertex="1" parent="13">
                    <mxGeometry x="285" y="197.86" width="25" height="40" as="geometry"/>
                </mxCell>
                <mxCell id="21" value="svg" style="shape=umlActor;verticalLabelPosition=bottom;verticalAlign=top;html=1;" vertex="1" parent="13">
                    <mxGeometry x="385" y="197.86" width="25" height="40" as="geometry"/>
                </mxCell>
                <mxCell id="20" value="svg" style="shape=umlActor;verticalLabelPosition=bottom;verticalAlign=top;html=1;" vertex="1" parent="13">
                    <mxGeometry x="332.5" y="197.86" width="25" height="40" as="geometry"/>
                </mxCell>
                <mxCell id="24" value="svg" style="shape=umlActor;verticalLabelPosition=bottom;verticalAlign=top;html=1;" vertex="1" parent="13">
                    <mxGeometry x="285" y="307.86" width="25" height="40" as="geometry"/>
                </mxCell>
                <mxCell id="25" value="svg" style="shape=umlActor;verticalLabelPosition=bottom;verticalAlign=top;html=1;" vertex="1" parent="13">
                    <mxGeometry x="385" y="307.86" width="25" height="40" as="geometry"/>
                </mxCell>
                <mxCell id="26" value="svg" style="shape=umlActor;verticalLabelPosition=bottom;verticalAlign=top;html=1;" vertex="1" parent="13">
                    <mxGeometry x="332.5" y="307.86" width="25" height="40" as="geometry"/>
                </mxCell>
                <mxCell id="27" value="svg" style="shape=umlActor;verticalLabelPosition=bottom;verticalAlign=top;html=1;" vertex="1" parent="13">
                    <mxGeometry x="285" y="87.86000000000001" width="25" height="40" as="geometry"/>
                </mxCell>
                <mxCell id="28" value="svg" style="shape=umlActor;verticalLabelPosition=bottom;verticalAlign=top;html=1;" vertex="1" parent="13">
                    <mxGeometry x="385" y="87.86000000000001" width="25" height="40" as="geometry"/>
                </mxCell>
                <mxCell id="29" value="svg" style="shape=umlActor;verticalLabelPosition=bottom;verticalAlign=top;html=1;" vertex="1" parent="13">
                    <mxGeometry x="332.5" y="87.86000000000001" width="25" height="40" as="geometry"/>
                </mxCell>
                <mxCell id="44" value="class = nr2" style="verticalAlign=top;align=left;shape=cube;size=10;direction=south;fontStyle=0;html=1;boundedLbl=1;spacingLeft=5;" vertex="1" parent="1">
                    <mxGeometry x="57.5" y="670" width="685" height="950" as="geometry"/>
                </mxCell>
                <mxCell id="45" value="class = whatIs" style="verticalAlign=top;align=center;shape=cube;size=10;direction=south;html=1;boundedLbl=1;spacingLeft=5;" vertex="1" parent="44">
                    <mxGeometry width="640" height="320" relative="1" as="geometry">
                        <mxPoint x="23" y="60" as="offset"/>
                    </mxGeometry>
                </mxCell>
                <mxCell id="49" value="h2" style="verticalAlign=top;align=center;shape=cube;size=10;direction=south;html=1;boundedLbl=1;spacingLeft=5;" vertex="1" parent="44">
                    <mxGeometry x="208.75" y="100" width="267.5" height="40" as="geometry"/>
                </mxCell>
                <mxCell id="50" value="class = nemtAtFinde" style="verticalAlign=top;align=left;shape=cube;size=10;direction=south;fontStyle=0;html=1;boundedLbl=1;spacingLeft=5;" vertex="1" parent="44">
                    <mxGeometry x="24.5" y="406" width="635.5" height="454" as="geometry"/>
                </mxCell>
                <mxCell id="51" value="H2" style="verticalAlign=top;align=center;shape=cube;size=10;direction=south;html=1;boundedLbl=1;spacingLeft=5;" vertex="1" parent="50">
                    <mxGeometry width="100" height="40" relative="1" as="geometry">
                        <mxPoint x="248" y="30" as="offset"/>
                    </mxGeometry>
                </mxCell>
                <mxCell id="63" value="" style="group" vertex="1" connectable="0" parent="50">
                    <mxGeometry x="161.29959839357429" y="102.78999999999996" width="145.82300401606426" height="327.21" as="geometry"/>
                </mxCell>
                <mxCell id="64" value="article1" style="verticalAlign=top;align=center;shape=cube;size=10;direction=south;html=1;boundedLbl=1;spacingLeft=5;" vertex="1" parent="63">
                    <mxGeometry width="145.82300401606426" height="327.21" as="geometry"/>
                </mxCell>
                <mxCell id="65" value="class = template1" style="verticalAlign=top;align=center;shape=cube;size=10;direction=south;html=1;boundedLbl=1;spacingLeft=5;" vertex="1" parent="63">
                    <mxGeometry x="11.066377510040162" y="47.209999999999994" width="114.33895582329316" height="260" as="geometry"/>
                </mxCell>
                <mxCell id="74" value="img" style="verticalAlign=top;align=center;shape=cube;size=10;direction=south;html=1;boundedLbl=1;spacingLeft=5;" vertex="1" parent="63">
                    <mxGeometry x="27.347469879518087" y="87.21000000000004" width="81.77" height="42.79" as="geometry"/>
                </mxCell>
                <mxCell id="80" value="h3" style="verticalAlign=top;align=center;shape=cube;size=10;direction=south;html=1;boundedLbl=1;spacingLeft=5;" vertex="1" parent="63">
                    <mxGeometry x="27.347469879518087" y="142.21000000000004" width="81.77" height="42.79" as="geometry"/>
                </mxCell>
                <mxCell id="81" value="p" style="verticalAlign=top;align=center;shape=cube;size=10;direction=south;html=1;boundedLbl=1;spacingLeft=5;" vertex="1" parent="63">
                    <mxGeometry x="26.69746987951811" y="197.21000000000004" width="81.77" height="42.79" as="geometry"/>
                </mxCell>
                <mxCell id="82" value="p" style="verticalAlign=top;align=center;shape=cube;size=10;direction=south;html=1;boundedLbl=1;spacingLeft=5;" vertex="1" parent="63">
                    <mxGeometry x="26.69746987951811" y="247.21000000000004" width="81.77" height="42.79" as="geometry"/>
                </mxCell>
                <mxCell id="62" value="" style="group" vertex="1" connectable="0" parent="50">
                    <mxGeometry x="8.167068273092365" y="102.79" width="145.82300401606426" height="327.21" as="geometry"/>
                </mxCell>
                <mxCell id="52" value="article1" style="verticalAlign=top;align=center;shape=cube;size=10;direction=south;html=1;boundedLbl=1;spacingLeft=5;" vertex="1" parent="62">
                    <mxGeometry width="145.82300401606426" height="327.21" as="geometry"/>
                </mxCell>
                <mxCell id="56" value="class = template1" style="verticalAlign=top;align=center;shape=cube;size=10;direction=south;html=1;boundedLbl=1;spacingLeft=5;" vertex="1" parent="62">
                    <mxGeometry x="11.066377510040162" y="47.209999999999994" width="114.33895582329316" height="260" as="geometry"/>
                </mxCell>
                <mxCell id="73" value="img" style="verticalAlign=top;align=center;shape=cube;size=10;direction=south;html=1;boundedLbl=1;spacingLeft=5;" vertex="1" parent="62">
                    <mxGeometry x="18.23" y="87.21" width="81.77" height="42.79" as="geometry"/>
                </mxCell>
                <mxCell id="77" value="h3" style="verticalAlign=top;align=center;shape=cube;size=10;direction=south;html=1;boundedLbl=1;spacingLeft=5;" vertex="1" parent="62">
                    <mxGeometry x="18.230000000000004" y="142.21000000000004" width="81.77" height="42.79" as="geometry"/>
                </mxCell>
                <mxCell id="78" value="p" style="verticalAlign=top;align=center;shape=cube;size=10;direction=south;html=1;boundedLbl=1;spacingLeft=5;" vertex="1" parent="62">
                    <mxGeometry x="18.230000000000004" y="197.21000000000004" width="81.77" height="42.79" as="geometry"/>
                </mxCell>
                <mxCell id="79" value="p" style="verticalAlign=top;align=center;shape=cube;size=10;direction=south;html=1;boundedLbl=1;spacingLeft=5;" vertex="1" parent="62">
                    <mxGeometry x="18.230000000000004" y="247.21000000000004" width="81.77" height="42.79" as="geometry"/>
                </mxCell>
                <mxCell id="66" value="" style="group" vertex="1" connectable="0" parent="50">
                    <mxGeometry x="318.5156626506024" y="102.78999999999996" width="145.82300401606426" height="340.8199999999999" as="geometry"/>
                </mxCell>
                <mxCell id="67" value="article1" style="verticalAlign=top;align=center;shape=cube;size=10;direction=south;html=1;boundedLbl=1;spacingLeft=5;" vertex="1" parent="66">
                    <mxGeometry width="145.82300401606426" height="327.21" as="geometry"/>
                </mxCell>
                <mxCell id="68" value="class = template1" style="verticalAlign=top;align=center;shape=cube;size=10;direction=south;html=1;boundedLbl=1;spacingLeft=5;" vertex="1" parent="66">
                    <mxGeometry x="11.066377510040162" y="47.209999999999994" width="114.33895582329316" height="260" as="geometry"/>
                </mxCell>
                <mxCell id="75" value="img" style="verticalAlign=top;align=center;shape=cube;size=10;direction=south;html=1;boundedLbl=1;spacingLeft=5;" vertex="1" parent="66">
                    <mxGeometry x="19.48140562249" y="87.21000000000004" width="81.77" height="42.79" as="geometry"/>
                </mxCell>
                <mxCell id="83" value="h3" style="verticalAlign=top;align=center;shape=cube;size=10;direction=south;html=1;boundedLbl=1;spacingLeft=5;" vertex="1" parent="66">
                    <mxGeometry x="19.48140562249" y="142.21000000000004" width="81.77" height="42.79" as="geometry"/>
                </mxCell>
                <mxCell id="84" value="p" style="verticalAlign=top;align=center;shape=cube;size=10;direction=south;html=1;boundedLbl=1;spacingLeft=5;" vertex="1" parent="66">
                    <mxGeometry x="19.48140562249" y="197.21000000000004" width="81.77" height="42.79" as="geometry"/>
                </mxCell>
                <mxCell id="85" value="p" style="verticalAlign=top;align=center;shape=cube;size=10;direction=south;html=1;boundedLbl=1;spacingLeft=5;" vertex="1" parent="66">
                    <mxGeometry x="19.48140562249" y="247.21000000000004" width="81.77" height="42.79" as="geometry"/>
                </mxCell>
                <mxCell id="69" value="" style="group" vertex="1" connectable="0" parent="50">
                    <mxGeometry x="477.7734939759036" y="99.99999999999986" width="145.82300401606426" height="327.21" as="geometry"/>
                </mxCell>
                <mxCell id="70" value="article1" style="verticalAlign=top;align=center;shape=cube;size=10;direction=south;html=1;boundedLbl=1;spacingLeft=5;" vertex="1" parent="69">
                    <mxGeometry width="145.82300401606426" height="327.21" as="geometry"/>
                </mxCell>
                <mxCell id="71" value="class = template1" style="verticalAlign=top;align=center;shape=cube;size=10;direction=south;html=1;boundedLbl=1;spacingLeft=5;" vertex="1" parent="69">
                    <mxGeometry x="11.066377510040162" y="47.209999999999994" width="114.33895582329316" height="260" as="geometry"/>
                </mxCell>
                <mxCell id="76" value="img" style="verticalAlign=top;align=center;shape=cube;size=10;direction=south;html=1;boundedLbl=1;spacingLeft=5;" vertex="1" parent="69">
                    <mxGeometry x="20.223574297188748" y="90.00000000000023" width="81.77" height="42.79" as="geometry"/>
                </mxCell>
                <mxCell id="86" value="h3" style="verticalAlign=top;align=center;shape=cube;size=10;direction=south;html=1;boundedLbl=1;spacingLeft=5;" vertex="1" parent="69">
                    <mxGeometry x="20.223574297188748" y="150.00000000000023" width="81.77" height="42.79" as="geometry"/>
                </mxCell>
                <mxCell id="87" value="p" style="verticalAlign=top;align=center;shape=cube;size=10;direction=south;html=1;boundedLbl=1;spacingLeft=5;" vertex="1" parent="69">
                    <mxGeometry x="20.223574297188748" y="200.00000000000023" width="81.77" height="42.79" as="geometry"/>
                </mxCell>
                <mxCell id="88" value="p" style="verticalAlign=top;align=center;shape=cube;size=10;direction=south;html=1;boundedLbl=1;spacingLeft=5;" vertex="1" parent="69">
                    <mxGeometry x="20.223574297188748" y="250.00000000000023" width="81.77" height="42.79" as="geometry"/>
                </mxCell>
                <mxCell id="112" style="edgeStyle=none;html=1;exitX=0;exitY=0;exitDx=40;exitDy=63.75;exitPerimeter=0;entryX=0;entryY=0;entryDx=0;entryDy=53.75;entryPerimeter=0;" edge="1" parent="44" source="108" target="109">
                    <mxGeometry relative="1" as="geometry"/>
                </mxCell>
                <mxCell id="108" value="class = kulge" style="verticalAlign=top;align=center;shape=cube;size=10;direction=south;html=1;boundedLbl=1;spacingLeft=5;" vertex="1" parent="44">
                    <mxGeometry x="62.5" y="160" width="117.5" height="40" as="geometry"/>
                </mxCell>
                <mxCell id="113" style="edgeStyle=none;html=1;entryX=0;entryY=0;entryDx=40;entryDy=63.75;entryPerimeter=0;" edge="1" parent="44" source="109" target="110">
                    <mxGeometry relative="1" as="geometry"/>
                </mxCell>
                <mxCell id="109" value="class = streg" style="verticalAlign=top;align=center;shape=cube;size=10;direction=south;html=1;boundedLbl=1;spacingLeft=5;" vertex="1" parent="44">
                    <mxGeometry x="62.5" y="280" width="117.5" height="40" as="geometry"/>
                </mxCell>
                <mxCell id="116" style="edgeStyle=none;html=1;" edge="1" parent="44" source="110" target="114">
                    <mxGeometry relative="1" as="geometry"/>
                </mxCell>
                <mxCell id="110" value="class = kulge" style="verticalAlign=top;align=center;shape=cube;size=10;direction=south;html=1;boundedLbl=1;spacingLeft=5;" vertex="1" parent="44">
                    <mxGeometry x="272.5" y="160" width="117.5" height="40" as="geometry"/>
                </mxCell>
                <mxCell id="118" style="edgeStyle=none;html=1;" edge="1" parent="44" source="111" target="115">
                    <mxGeometry relative="1" as="geometry"/>
                </mxCell>
                <mxCell id="111" value="class = kulge" style="verticalAlign=top;align=center;shape=cube;size=10;direction=south;html=1;boundedLbl=1;spacingLeft=5;" vertex="1" parent="44">
                    <mxGeometry x="482.5" y="160" width="117.5" height="40" as="geometry"/>
                </mxCell>
                <mxCell id="117" style="edgeStyle=none;html=1;entryX=0;entryY=0;entryDx=40;entryDy=63.75;entryPerimeter=0;" edge="1" parent="44" source="114" target="111">
                    <mxGeometry relative="1" as="geometry"/>
                </mxCell>
                <mxCell id="114" value="class = streg" style="verticalAlign=top;align=center;shape=cube;size=10;direction=south;html=1;boundedLbl=1;spacingLeft=5;" vertex="1" parent="44">
                    <mxGeometry x="272.5" y="280" width="117.5" height="40" as="geometry"/>
                </mxCell>
                <mxCell id="115" value="class = streg" style="verticalAlign=top;align=center;shape=cube;size=10;direction=south;html=1;boundedLbl=1;spacingLeft=5;" vertex="1" parent="44">
                    <mxGeometry x="482.5" y="280" width="117.5" height="40" as="geometry"/>
                </mxCell>
                <mxCell id="119" value="#info1" style="verticalAlign=top;align=center;shape=cube;size=10;direction=south;html=1;boundedLbl=1;spacingLeft=5;" vertex="1" parent="44">
                    <mxGeometry x="32.5" y="330" width="87.5" height="40" as="geometry"/>
                </mxCell>
                <mxCell id="120" value="#info2" style="verticalAlign=top;align=center;shape=cube;size=10;direction=south;html=1;boundedLbl=1;spacingLeft=5;" vertex="1" parent="44">
                    <mxGeometry x="132.5" y="330" width="87.5" height="40" as="geometry"/>
                </mxCell>
                <mxCell id="121" value="#info3" style="verticalAlign=top;align=center;shape=cube;size=10;direction=south;html=1;boundedLbl=1;spacingLeft=5;" vertex="1" parent="44">
                    <mxGeometry x="232.5" y="330" width="87.5" height="40" as="geometry"/>
                </mxCell>
                <mxCell id="123" value="#info4" style="verticalAlign=top;align=center;shape=cube;size=10;direction=south;html=1;boundedLbl=1;spacingLeft=5;" vertex="1" parent="44">
                    <mxGeometry x="332.5" y="330" width="87.5" height="40" as="geometry"/>
                </mxCell>
                <mxCell id="124" value="#info5" style="verticalAlign=top;align=center;shape=cube;size=10;direction=south;html=1;boundedLbl=1;spacingLeft=5;" vertex="1" parent="44">
                    <mxGeometry x="432.5" y="330" width="87.5" height="40" as="geometry"/>
                </mxCell>
                <mxCell id="125" value="#info6" style="verticalAlign=top;align=center;shape=cube;size=10;direction=south;html=1;boundedLbl=1;spacingLeft=5;" vertex="1" parent="44">
                    <mxGeometry x="532.5" y="330" width="87.5" height="40" as="geometry"/>
                </mxCell>
                <mxCell id="89" value="class = season" style="verticalAlign=top;align=left;shape=cube;size=10;direction=south;fontStyle=0;html=1;boundedLbl=1;spacingLeft=5;" vertex="1" parent="1">
                    <mxGeometry x="56.25" y="1650" width="682.5" height="570" as="geometry"/>
                </mxCell>
                <mxCell id="90" value="class = seasonNav" style="verticalAlign=top;align=center;shape=cube;size=10;direction=south;html=1;boundedLbl=1;spacingLeft=5;" vertex="1" parent="89">
                    <mxGeometry width="650" height="100" relative="1" as="geometry">
                        <mxPoint x="10" y="50" as="offset"/>
                    </mxGeometry>
                </mxCell>
                <mxCell id="91" value="button #sommer" style="verticalAlign=top;align=center;shape=cube;size=10;direction=south;html=1;boundedLbl=1;spacingLeft=5;" vertex="1" parent="89">
                    <mxGeometry x="40" y="69" width="100" height="70" as="geometry"/>
                </mxCell>
                <mxCell id="92" value="button #vinter" style="verticalAlign=top;align=center;shape=cube;size=10;direction=south;html=1;boundedLbl=1;spacingLeft=5;" vertex="1" parent="89">
                    <mxGeometry x="160" y="69" width="100" height="70" as="geometry"/>
                </mxCell>
                <mxCell id="93" value="button #efterår" style="verticalAlign=top;align=center;shape=cube;size=10;direction=south;html=1;boundedLbl=1;spacingLeft=5;" vertex="1" parent="89">
                    <mxGeometry x="390" y="69" width="100" height="70" as="geometry"/>
                </mxCell>
                <mxCell id="94" value="button #forår" style="verticalAlign=top;align=center;shape=cube;size=10;direction=south;html=1;boundedLbl=1;spacingLeft=5;" vertex="1" parent="89">
                    <mxGeometry x="520" y="69" width="100" height="70" as="geometry"/>
                </mxCell>
                <mxCell id="95" value="class = background" style="verticalAlign=top;align=center;shape=cube;size=10;direction=south;html=1;boundedLbl=1;spacingLeft=5;" vertex="1" parent="89">
                    <mxGeometry x="13.75" y="180" width="640" height="370" as="geometry"/>
                </mxCell>
                <mxCell id="96" value="template&lt;span style=&quot;color: rgba(0, 0, 0, 0); font-family: monospace; font-size: 0px; text-align: start;&quot;&gt;%3CmxGraphModel%3E%3Croot%3E%3CmxCell%20id%3D%220%22%2F%3E%3CmxCell%20id%3D%221%22%20parent%3D%220%22%2F%3E%3CmxCell%20id%3D%222%22%20value%3D%22button%20%23sommer%22%20style%3D%22verticalAlign%3Dtop%3Balign%3Dcenter%3Bshape%3Dcube%3Bsize%3D10%3Bdirection%3Dsouth%3Bhtml%3D1%3BboundedLbl%3D1%3BspacingLeft%3D5%3B%22%20vertex%3D%221%22%20parent%3D%221%22%3E%3CmxGeometry%20x%3D%2296.25%22%20y%3D%221719%22%20width%3D%22100%22%20height%3D%2270%22%20as%3D%22geometry%22%2F%3E%3C%2FmxCell%3E%3C%2Froot%3E%3C%2FmxGraphModel%3E&amp;nbsp;&lt;/span&gt;" style="verticalAlign=top;align=center;shape=cube;size=10;direction=south;html=1;boundedLbl=1;spacingLeft=5;" vertex="1" parent="89">
                    <mxGeometry x="63.75" y="260" width="150" height="200" as="geometry"/>
                </mxCell>
                <mxCell id="97" value="template&lt;span style=&quot;color: rgba(0, 0, 0, 0); font-family: monospace; font-size: 0px; text-align: start;&quot;&gt;%3CmxGraphModel%3E%3Croot%3E%3CmxCell%20id%3D%220%22%2F%3E%3CmxCell%20id%3D%221%22%20parent%3D%220%22%2F%3E%3CmxCell%20id%3D%222%22%20value%3D%22button%20%23sommer%22%20style%3D%22verticalAlign%3Dtop%3Balign%3Dcenter%3Bshape%3Dcube%3Bsize%3D10%3Bdirection%3Dsouth%3Bhtml%3D1%3BboundedLbl%3D1%3BspacingLeft%3D5%3B%22%20vertex%3D%221%22%20parent%3D%221%22%3E%3CmxGeometry%20x%3D%2296.25%22%20y%3D%221719%22%20width%3D%22100%22%20height%3D%2270%22%20as%3D%22geometry%22%2F%3E%3C%2FmxCell%3E%3C%2Froot%3E%3C%2FmxGraphModel%3E&lt;/span&gt;" style="verticalAlign=top;align=center;shape=cube;size=10;direction=south;html=1;boundedLbl=1;spacingLeft=5;" vertex="1" parent="89">
                    <mxGeometry x="258.75" y="260" width="150" height="200" as="geometry"/>
                </mxCell>
                <mxCell id="98" value="template&lt;span style=&quot;color: rgba(0, 0, 0, 0); font-family: monospace; font-size: 0px; text-align: start;&quot;&gt;%3CmxGraphModel%3E%3Croot%3E%3CmxCell%20id%3D%220%22%2F%3E%3CmxCell%20id%3D%221%22%20parent%3D%220%22%2F%3E%3CmxCell%20id%3D%222%22%20value%3D%22button%20%23sommer%22%20style%3D%22verticalAlign%3Dtop%3Balign%3Dcenter%3Bshape%3Dcube%3Bsize%3D10%3Bdirection%3Dsouth%3Bhtml%3D1%3BboundedLbl%3D1%3BspacingLeft%3D5%3B%22%20vertex%3D%221%22%20parent%3D%221%22%3E%3CmxGeometry%20x%3D%2296.25%22%20y%3D%221719%22%20width%3D%22100%22%20height%3D%2270%22%20as%3D%22geometry%22%2F%3E%3C%2FmxCell%3E%3C%2Froot%3E%3C%2FmxGraphModel%3E&lt;/span&gt;" style="verticalAlign=top;align=center;shape=cube;size=10;direction=south;html=1;boundedLbl=1;spacingLeft=5;" vertex="1" parent="89">
                    <mxGeometry x="453.75" y="260" width="150" height="200" as="geometry"/>
                </mxCell>
                <mxCell id="99" value="h3" style="verticalAlign=top;align=center;shape=cube;size=10;direction=south;html=1;boundedLbl=1;spacingLeft=5;" vertex="1" parent="89">
                    <mxGeometry x="83.75" y="300" width="100" height="40" as="geometry"/>
                </mxCell>
                <mxCell id="100" value="h3" style="verticalAlign=top;align=center;shape=cube;size=10;direction=south;html=1;boundedLbl=1;spacingLeft=5;" vertex="1" parent="89">
                    <mxGeometry x="283.75" y="300" width="100" height="40" as="geometry"/>
                </mxCell>
                <mxCell id="101" value="h3" style="verticalAlign=top;align=center;shape=cube;size=10;direction=south;html=1;boundedLbl=1;spacingLeft=5;" vertex="1" parent="89">
                    <mxGeometry x="478.75" y="300" width="100" height="40" as="geometry"/>
                </mxCell>
                <mxCell id="102" value="p" style="verticalAlign=top;align=center;shape=cube;size=10;direction=south;html=1;boundedLbl=1;spacingLeft=5;" vertex="1" parent="89">
                    <mxGeometry x="98.75" y="350" width="61.25" height="40" as="geometry"/>
                </mxCell>
                <mxCell id="103" value="p" style="verticalAlign=top;align=center;shape=cube;size=10;direction=south;html=1;boundedLbl=1;spacingLeft=5;" vertex="1" parent="89">
                    <mxGeometry x="98.75" y="400" width="61.25" height="40" as="geometry"/>
                </mxCell>
                <mxCell id="104" value="p" style="verticalAlign=top;align=center;shape=cube;size=10;direction=south;html=1;boundedLbl=1;spacingLeft=5;" vertex="1" parent="89">
                    <mxGeometry x="295.75" y="350" width="61.25" height="40" as="geometry"/>
                </mxCell>
                <mxCell id="105" value="p" style="verticalAlign=top;align=center;shape=cube;size=10;direction=south;html=1;boundedLbl=1;spacingLeft=5;" vertex="1" parent="89">
                    <mxGeometry x="295.75" y="400" width="61.25" height="40" as="geometry"/>
                </mxCell>
                <mxCell id="106" value="p" style="verticalAlign=top;align=center;shape=cube;size=10;direction=south;html=1;boundedLbl=1;spacingLeft=5;" vertex="1" parent="89">
                    <mxGeometry x="490" y="350" width="61.25" height="40" as="geometry"/>
                </mxCell>
                <mxCell id="107" value="p" style="verticalAlign=top;align=center;shape=cube;size=10;direction=south;html=1;boundedLbl=1;spacingLeft=5;" vertex="1" parent="89">
                    <mxGeometry x="490" y="400" width="61.25" height="40" as="geometry"/>
                </mxCell>
            </root>
        </mxGraphModel>
    </diagram>
</mxfile>